HIERARCHY
ROOT Hips
{
	OFFSET 0.00000 0.00000 0.00000
	CHANNELS 6 Xposition Yposition Zposition Zrotation Yrotation Xrotation 
	JOINT LHipJoint
	{
		OFFSET 0 0 0
		CHANNELS 3 Zrotation Yrotation Xrotation
		JOINT LeftHip
		{
			OFFSET 1.78158 -1.79992 1.25746
			CHANNELS 3 Zrotation Yrotation Xrotation
			JOINT LeftKnee
			{
				OFFSET 2.48433 -6.82566 0.00000
				CHANNELS 3 Zrotation Yrotation Xrotation
				JOINT LeftAnkle
				{
					OFFSET 2.69722 -7.41057 0.00000
					CHANNELS 3 Zrotation Yrotation Xrotation
					JOINT LeftToe
					{
						OFFSET 0.10733 -0.29489 1.75071
						CHANNELS 3 Zrotation Yrotation Xrotation
						End Site
						{
							OFFSET 0.00000 -0.00000 0.90224
						}
					}
				}
			}
		}
	}
	JOINT RHipJoint
	{
		OFFSET 0 0 0
		CHANNELS 3 Zrotation Yrotation Xrotation
		JOINT RightHip
		{
			OFFSET -1.91234 -1.79993 1.25746
			CHANNELS 3 Zrotation Yrotation Xrotation
			JOINT RightKnee
			{
				OFFSET -2.33122 -6.40498 0.00000
				CHANNELS 3 Zrotation Yrotation Xrotation
				JOINT RightAnkle
				{
					OFFSET -2.75667 -7.57390 0.00000
					CHANNELS 3 Zrotation Yrotation Xrotation
					JOINT RightToe
					{
						OFFSET -0.15946 -0.43811 1.78925
						CHANNELS 3 Zrotation Yrotation Xrotation
						End Site
						{
							OFFSET -0.00000 -0.00000 0.93158
						}
					}
				}
			}
		}
	}
	JOINT lowerback
	{
		OFFSET 0 0 0
		CHANNELS 3 Zrotation Yrotation Xrotation
		JOINT Chest
		{
			OFFSET -0.02267 2.03993 -0.26238
			CHANNELS 3 Zrotation Yrotation Xrotation
			JOINT Chest2
			{
				OFFSET 0.02263 2.06220 -0.00892
				CHANNELS 3 Zrotation Yrotation Xrotation
				JOINT lowerneck
				{
					OFFSET 0 0 0
					CHANNELS 3 Zrotation Yrotation Xrotation
					JOINT Neck
					{
						OFFSET -0.06177 1.95978 0.28606
						CHANNELS 3 Zrotation Yrotation Xrotation
						JOINT Head
						{
							OFFSET 0.08482 1.96576 -0.43252
							CHANNELS 3 Zrotation Yrotation Xrotation
							End Site
							{
								OFFSET 0.02787 2.02739 -0.18071
							}
						}
					}
				}
				JOINT LeftCollar
				{
					OFFSET 0 0 0
					CHANNELS 3 Zrotation Yrotation Xrotation
					JOINT LeftShoulder
					{
						OFFSET 3.80978 1.64906 0.29973
CHANNELS 3 Zrotation Xrotation Yrotation
						JOINT LeftElbow
						{
OFFSET 0 -4.930420 0.000000
CHANNELS 3 Zrotation Xrotation Yrotation
							JOINT LeftWrist
							{
OFFSET 0 -3.681770 0.000000
CHANNELS 3 Zrotation Xrotation Yrotation
								JOINT lhand
								{
									OFFSET 0 0 0
CHANNELS 3 Zrotation Xrotation Yrotation
									JOINT LFingers
									{
OFFSET 0 -0.721480 0.000000
CHANNELS 3 Zrotation Xrotation Yrotation
										End Site
										{
OFFSET 0 -0.581680 0.000000
										}
									}
								}
								JOINT LThumb
								{
OFFSET 0 0.000000 0.000000
CHANNELS 3 Zrotation Xrotation Yrotation
									End Site
									{
OFFSET 0 -0.590560 0.590560
									}
								}
							}
						}
					}
				}
				JOINT RightCollar
				{
					OFFSET 0 0 0
					CHANNELS 3 Zrotation Yrotation Xrotation
					JOINT RightShoulder
					{
						OFFSET -3.49270 1.85636 0.09297
CHANNELS 3 Zrotation Xrotation Yrotation
						JOINT RightElbow
						{
OFFSET 0 -5.079050 -0.000000
CHANNELS 3 Zrotation Xrotation Yrotation
							JOINT RightWrist
							{
OFFSET 0 -3.543940 0.000000
CHANNELS 3 Zrotation Xrotation Yrotation
								JOINT rhand
								{
									OFFSET 0 0 0
CHANNELS 3 Zrotation Xrotation Yrotation
									JOINT RFingers
									{
OFFSET 0 -0.681160 0.000000
CHANNELS 3 Zrotation Xrotation Yrotation
										End Site
										{
OFFSET 0 -0.549170 0.000000
										}
									}
								}
								JOINT RThumb
								{
OFFSET 0 0.000000 0.000000
CHANNELS 3 Zrotation Xrotation Yrotation
									End Site
									{
OFFSET 0 -0.557550 0.557550
									}
								}
							}
						}
					}
				}
			}
		}
	}
}
MOTION
Frames: 5
Frame Time: 0.008333333333333333
-9.438822 17.879101 -16.137265 368.219063 93.639286 372.206037 0.000000 0.000000 0.000000 -13.210596 -17.724347 -2.837485 1.506044 7.750927 21.960014 1.558899 11.138801 -29.914712 4.161825 -12.372632 -37.063350 0.000000 0.000000 0.000000 14.038438 -0.380214 7.714985 0.000000 0.000000 0.000000 0.194354 -11.955254 -14.026924 -1.591758 7.958133 -22.586963 -0.089651 -1.278568 6.710108 2.502077 -1.521151 -3.225097 2.868727 -0.664026 -7.078219 -4.657711 -2.806626 -25.244351 2.875352 -2.748336 31.151368 1.490769 -1.140369 15.262392 0.000000 0.000000 0.000000 6.897533 12.383376 -54.075245 117.864491 -56.852416 83.876368 43.010116 -31.717387 -9.195855 0.000000 0.000000 0.000000 -7.125000 0.000000 0.000000 14.457955 42.007689 1.092110 0.000000 0.000000 0.000000 -9.645949 9.784704 54.828846 -109.867843 -58.454563 -77.116734 -36.680684 20.227796 19.524538 0.000000 0.000000 0.000000 7.125000 0.000000 0.000000 -8.872512 53.615479 1.891418
-9.445666 17.878702 -16.137996 368.579190 93.587858 372.582110 0.000000 0.000000 0.000000 -13.193187 -17.736240 -2.826455 1.499533 7.734980 21.911842 1.559298 11.178003 -29.947336 4.146875 -12.353297 -36.993650 0.000000 0.000000 0.000000 14.055315 -0.312441 7.683956 0.000000 0.000000 0.000000 0.202061 -12.002562 -13.972971 -1.616874 8.017800 -22.768090 -0.079352 -1.257904 6.645525 2.515632 -1.490653 -3.266691 2.872382 -0.648478 -7.086658 -4.690734 -2.810879 -25.194053 2.844057 -2.727007 31.230104 1.489307 -1.138907 15.286976 0.000000 0.000000 0.000000 6.638999 11.860527 -53.809336 118.148672 -56.783447 84.114304 43.120147 -32.063361 -9.341966 0.000000 0.000000 0.000000 -7.125000 0.000000 0.000000 14.584265 42.213068 1.026729 0.000000 0.000000 0.000000 -9.457447 9.503911 54.602537 -110.100730 -58.416889 -77.315203 -36.749653 19.732787 19.641015 0.000000 0.000000 0.000000 7.125000 0.000000 0.000000 -8.945135 53.767436 1.940255
-9.452840 17.879229 -16.138066 369.018649 93.514614 373.046110 0.000000 0.000000 0.000000 -13.139220 -17.568182 -2.904939 1.493550 7.720157 21.867174 1.544888 11.144616 -29.827576 4.157047 -12.366488 -37.041032 0.000000 0.000000 0.000000 14.074704 -0.220934 7.649555 0.000000 0.000000 0.000000 0.209042 -12.041408 -13.917432 -1.628900 8.046065 -22.853952 -0.091795 -1.218332 6.582594 2.532955 -1.436819 -3.305376 2.889919 -0.620237 -7.093575 -4.734995 -2.822602 -25.141309 2.836297 -2.721016 31.295024 1.496440 -1.141809 15.306074 0.000000 0.000000 0.000000 6.413058 11.288691 -53.594266 118.359008 -56.731468 84.290097 43.199437 -32.236391 -9.446096 0.000000 0.000000 0.000000 -7.125000 0.000000 0.000000 14.675669 42.359939 0.978801 0.000000 0.000000 0.000000 -9.328312 9.151653 54.318118 -110.133236 -58.411610 -77.342909 -36.783055 19.215368 19.714784 0.000000 0.000000 0.000000 7.125000 0.000000 0.000000 -8.979943 53.861415 1.968597
-9.460146 17.880314 -16.137416 369.569845 93.418342 373.626447 0.000000 0.000000 0.000000 -13.068824 -17.317503 -3.019521 1.487538 7.705308 21.822426 1.525194 11.085828 -29.652779 4.179065 -12.394883 -37.143598 0.000000 0.000000 0.000000 14.098956 -0.104078 7.612826 0.000000 0.000000 0.000000 0.216311 -12.081351 -13.857946 -1.637865 8.067139 -22.918042 -0.120011 -1.165318 6.520876 2.552315 -1.366328 -3.343200 2.916544 -0.583012 -7.100714 -4.795330 -2.843119 -25.086794 2.853788 -2.730501 31.353948 1.513805 -1.149453 15.323646 0.000000 0.000000 0.000000 6.208701 10.691671 -53.407579 118.514118 -56.693020 84.419739 43.262751 -32.361182 -9.530840 0.000000 0.000000 0.000000 -7.125000 0.000000 0.000000 14.749122 42.479364 0.939490 0.000000 0.000000 0.000000 -9.219433 8.766838 54.007524 -110.086373 -58.419222 -77.302983 -36.814812 18.730161 19.788598 0.000000 0.000000 0.000000 7.125000 0.000000 0.000000 -9.012933 53.955102 1.996575
-9.467588 17.881975 -16.136021 370.236943 93.298211 374.327432 0.000000 0.000000 0.000000 -12.981516 -16.981761 -3.171213 1.481491 7.690424 21.777576 1.500079 11.000979 -29.421487 4.213284 -12.438936 -37.302997 0.000000 0.000000 0.000000 14.128258 0.039042 7.573690 0.000000 0.000000 0.000000 0.223886 -12.122480 -13.794359 -1.643712 8.080893 -22.959968 -0.164529 -1.098409 6.460412 2.573776 -1.278622 -3.380143 2.952557 -0.536501 -7.108089 -4.872339 -2.872753 -25.030449 2.897442 -2.756015 31.406705 1.541778 -1.162011 15.339659 0.000000 0.000000 0.000000 6.026645 10.068692 -53.250173 118.612123 -56.668569 84.501665 43.309594 -32.436662 -9.595623 0.000000 0.000000 0.000000 -7.125000 0.000000 0.000000 14.804072 42.570526 0.909059 0.000000 0.000000 0.000000 -9.131328 8.348507 53.669988 -109.957936 -58.440085 -77.193550 -36.845044 18.278607 19.862683 0.000000 0.000000 0.000000 7.125000 0.000000 0.000000 -9.044228 54.048788 2.024282
